<svg width="18" height="19" viewBox="0 0 18 19" fill="none" xmlns="http://www.w3.org/2000/svg">
<path d="M14.8068 1H2.80682C1.70182 1 0.780816 1.91 1.05382 2.98C1.34457 4.11384 1.88 5.17029 2.6225 6.07518C3.36499 6.98007 4.29657 7.71146 5.35182 8.218C6.17482 8.612 6.80682 9.386 6.80682 10.298V16.382C6.80691 16.5524 6.85054 16.7199 6.93356 16.8687C7.01659 17.0175 7.13625 17.1426 7.28121 17.2322C7.42617 17.3218 7.5916 17.3728 7.76182 17.3805C7.93204 17.3881 8.10139 17.3522 8.25382 17.276L10.2538 16.276C10.4199 16.193 10.5596 16.0654 10.6573 15.9075C10.7549 15.7496 10.8067 15.5677 10.8068 15.382V10.298C10.8068 9.386 11.4388 8.612 12.2608 8.218C13.3164 7.71169 14.2484 6.9804 14.9913 6.0755C15.7341 5.1706 16.2698 4.11403 16.5608 2.98C16.8318 1.91 15.9098 1 14.8068 1Z" stroke="black" stroke-width="2"/>
</svg>
