<svg width="24" height="20" viewBox="0 0 24 20" fill="none" xmlns="http://www.w3.org/2000/svg">
<path d="M2.5545 5.379C3.0115 5.379 3.3165 5.121 3.3165 4.594V0.809C3.3165 0.3165 2.9645 0 2.461 0C2.039 0 1.781 0.1405 1.488 0.34L0.668 0.914C0.4215 1.078 0.293 1.2305 0.293 1.4765C0.293 1.7815 0.539 1.992 0.808 1.992C0.949 1.992 1.031 1.9685 1.2305 1.828L1.7695 1.465H1.781V4.5935C1.781 5.121 2.0975 5.379 2.5545 5.379ZM6.621 3.9605H22.664C23.203 3.9605 23.613 3.5505 23.613 3.023C23.613 2.484 23.203 2.0735 22.664 2.0735H6.621C6.0935 2.0735 5.6835 2.4835 5.6835 3.023C5.6835 3.55 6.0935 3.9605 6.621 3.9605ZM0.668 12.4455H3.6795C4.0075 12.4455 4.242 12.2225 4.242 11.8945C4.242 11.543 4.0075 11.3205 3.6795 11.3205H2.004V11.2855L2.9645 10.5115C3.773 9.8555 4.078 9.4805 4.078 8.789C4.078 7.8515 3.293 7.219 2.027 7.219C0.914 7.219 0.0934999 7.8045 0.0934999 8.5545C0.0934999 8.9295 0.3395 9.129 0.7385 9.129C1.0075 9.129 1.195 9.047 1.3475 8.7775C1.5115 8.496 1.734 8.3435 2.0505 8.3435C2.402 8.3435 2.6365 8.5665 2.6365 8.8945C2.6365 9.176 2.496 9.422 1.8985 9.9025L0.3515 11.1675C0.129 11.3555 0.0349998 11.5665 0.0349998 11.824C0.0349998 12.1875 0.281 12.4455 0.668 12.4455ZM6.621 11.05H22.664C22.789 11.0515 22.9131 11.0279 23.0289 10.9808C23.1447 10.9336 23.2499 10.8637 23.3383 10.7753C23.4267 10.6869 23.4966 10.5817 23.5438 10.4659C23.5909 10.3501 23.6145 10.226 23.613 10.101C23.613 9.5735 23.203 9.1635 22.664 9.1635H6.621C6.0935 9.1635 5.6835 9.5735 5.6835 10.101C5.6835 10.6285 6.0935 11.05 6.621 11.05ZM2.0625 19.7465C3.445 19.7465 4.2775 19.1255 4.2775 18.1415C4.2775 17.4965 3.82 17.0515 3.0115 16.981V16.946C3.609 16.8405 4.0665 16.442 4.0665 15.762C4.0665 14.872 3.199 14.3795 2.0505 14.3795C1.125 14.3795 0.129 14.813 0.129 15.5865C0.129 15.9145 0.363 16.149 0.7265 16.149C0.984 16.149 1.1015 16.0435 1.2655 15.8675C1.535 15.5745 1.7575 15.481 2.039 15.481C2.402 15.481 2.6715 15.6565 2.6715 16.008C2.6715 16.3365 2.402 16.5005 1.9215 16.5005H1.7815C1.453 16.5005 1.242 16.6645 1.242 17.0045C1.242 17.321 1.441 17.5085 1.781 17.5085H1.9335C2.461 17.5085 2.742 17.684 2.742 18.0475C2.742 18.364 2.449 18.598 2.062 18.598C1.6405 18.598 1.3475 18.364 1.125 18.141C0.984 18.012 0.867 17.9185 0.656 17.9185C0.2695 17.9185 0 18.141 0 18.5045C0 19.313 1.1015 19.7465 2.0625 19.7465ZM6.621 18.1295H22.664C23.203 18.1295 23.613 17.7195 23.613 17.192C23.613 16.653 23.203 16.2425 22.664 16.2425H6.621C6.0935 16.2425 5.6835 16.6525 5.6835 17.192C5.6835 17.719 6.0935 18.1295 6.621 18.1295Z" fill="black"/>
</svg>
