<svg width="20" height="20" viewBox="0 0 20 20" fill="none" xmlns="http://www.w3.org/2000/svg">
<path d="M9.75 15C11.1424 15 12.4777 14.4469 13.4623 13.4623C14.4469 12.4777 15 11.1424 15 9.75C15 8.35761 14.4469 7.02226 13.4623 6.03769C12.4777 5.05312 11.1424 4.5 9.75 4.5C8.35761 4.5 7.02226 5.05312 6.03769 6.03769C5.05312 7.02226 4.5 8.35761 4.5 9.75C4.5 11.1424 5.05312 12.4777 6.03769 13.4623C7.02226 14.4469 8.35761 15 9.75 15Z" stroke="black" stroke-width="1.5" stroke-linecap="round" stroke-linejoin="round"/>
<path d="M9.75 11.25C10.1478 11.25 10.5294 11.092 10.8107 10.8107C11.092 10.5294 11.25 10.1478 11.25 9.75C11.25 9.35218 11.092 8.97064 10.8107 8.68934C10.5294 8.40804 10.1478 8.25 9.75 8.25C9.35218 8.25 8.97064 8.40804 8.68934 8.68934C8.40804 8.97064 8.25 9.35218 8.25 9.75C8.25 10.1478 8.40804 10.5294 8.68934 10.8107C8.97064 11.092 9.35218 11.25 9.75 11.25Z" stroke="black" stroke-width="1.5" stroke-linecap="round" stroke-linejoin="round"/>
<path d="M18.75 9.75C18.75 10.9319 18.5172 12.1022 18.0649 13.1942C17.6126 14.2861 16.9497 15.2782 16.114 16.114C15.2782 16.9497 14.2861 17.6126 13.1942 18.0649C12.1022 18.5172 10.9319 18.75 9.75 18.75C8.5681 18.75 7.39778 18.5172 6.30585 18.0649C5.21392 17.6126 4.22177 16.9497 3.38604 16.114C2.55031 15.2782 1.88738 14.2861 1.43508 13.1942C0.982792 12.1022 0.75 10.9319 0.75 9.75C0.75 7.36305 1.69821 5.07387 3.38604 3.38604C5.07387 1.69821 7.36305 0.75 9.75 0.75C12.1369 0.75 14.4261 1.69821 16.114 3.38604C17.8018 5.07387 18.75 7.36305 18.75 9.75Z" stroke="black" stroke-width="1.5" stroke-linecap="round" stroke-linejoin="round"/>
</svg>
